# xmcd
#
# Track frame offsets: 
#        150
#        17810
#        34837
#        45697
#        62570
#        83402
#        105157
#        129492
#
# Disc length: 2013 seconds
#
# Revision: 3
# Processed by: cddbd v1.5.2PL0 Copyright (c) Steve Scherf et al.
# Submitted via: ExactAudioCopy v0.90b4
#
DISCID=5607db08
DTITLE=Lambchop - Thriller
DYEAR=1997
DGENRE=Alternative
TTITLE0=My Face Your Ass
TTITLE1=Your Fucking Sunny Day
TTITLE2=Hey, Where's Your Girl
TTITLE3=Crawl Away
TTITLE4=Gloria Leonard
TTITLE5=Thriller
TTITLE6=The Old Fat Robin
TTITLE7=Superstar In France
EXTD=
EXTT0=
EXTT1=
EXTT2=
EXTT3=
EXTT4=
EXTT5=
EXTT6=
EXTT7=
PLAYORDER=
